<?xml version="1.0" encoding="UTF-8"?>
<svg id="Layer_1" data-name="Layer 1" xmlns="http://www.w3.org/2000/svg" viewBox="0 0 134 54.32">
  <defs>
    <style>
      .cls-1, .cls-2, .cls-3 {
        fill: #fff;
      }

      .cls-2 {
        font-size: 12.34px;
      }

      .cls-2, .cls-3 {
        font-family: HelveticaInserat-Roman, 'Helvetica Inserat';
      }

      .cls-4 {
        fill: #352c00;
      }

      .cls-5 {
        fill: #f39c12;
      }

      .cls-3 {
        font-size: 8.37px;
      }
    </style>
  </defs>
  <g>
    <path class="cls-1" d="M7.43,13.14l12.42-5.74,24.1,5.36-10.53,3.71-.63,.51s-.57,3.81,.44,5.08,3.86,3.24,3.86,3.24l-.38,1.84,.13,1.52-1.27,1.7s2.84,10.7-4.74,14.4c0,0-2.99-3.14-10.55,.69,0,0-1.58-1.8-8.57,.26,0,0,3.91-7.21,5.63-8.03l-2.97-6.39-2.66-2.62s-1.72-.94-1.28-2.86,2.22-3.28,2.79-4.05,2.57-6.8,2.57-6.8l-8.38-1.81Z"/>
    <circle class="cls-5" cx="27.03" cy="27.04" r="27.03"/>
    <g>
      <g>
        <path class="cls-4" d="M18.99,33.45s.5,.71,1.36,.73,1.84-.33,2.17-.51c0,0-.3,.76-.69,.91l-.2,.98-.17-1.05-.22,1.05-.17-1.05-.31,1.12v-.78l-.28,.78-.1-.81-.25,.81-.07-.86-.17,.44-.07-.51-.1,.22-.07-.38s-.5-.07-.66-1.09Z"/>
        <path class="cls-4" d="M23.38,32.16s-.53-.06-.7-.15-.59-.61-.59-.61l.17,.61c-.5-.2-1.19-.99-1.19-.99l.57,.99c-.58-.39-1.21-1.34-1.21-1.34,1.72-.15,1.2-1.42,.86-1.81-.35-.39-.81-.34-.81-.34,1.42,.93,.56,1.62,.4,1.74-.16,.12-.74,.15-.86,.11s.05-.13,.58-.16c.53-.02,.29-.68-.51-.72-.81-.04-.96,.72-.96,.72-2.02-.33-.85-2.17-.85-2.17,2.09-3.31,.33-4.74,.33-4.74-1.78-1.42-3.34,.77-3.34,.77,.55-.48,.92-.4,.92-.4-.83,.76-.31,2.63,.94,2.65s1.27-.92,1.27-.92c-.78,1.19-2.09,.48-2.08-.04,.02-.51,.62-.66,.62-.66,0,0-.33,.68,.29,.92,.62,.24,1.07-.61,1.07-.61,.29-.07,.31,.26,.31,.26,.18-.74-.74-.99-.74-.99-1.23-.29-1.87,.53-1.87,.53,.04-.18,.33-1.47,1.98-.85,1.65,.62,.74,2.72-.18,4.48-.92,1.76,.96,2.5,.96,2.5-.51,1.06-2.24,1.14-2.24,1.14l.51,1.37s1.91-.25,2.38-.06c.47,.18,1.05-.08,1.25-.15,.2-.06,1.11,.02,2.42-.06,1.3-.07,1.38-1.51,1.38-1.51-.42,.51-1.08,.48-1.08,.48Zm-2.97,.36s-.32,.42-.86,.33c-.54-.09-.61-.19-1-.21,0,0,.86-.2,1.05-1.2l.27,.12s.98,1.2,1.62,1.25c0,0-.29,.2-1.08-.29Z"/>
        <path class="cls-4" d="M19.77,28.68s.44-4.97,3.04-5.81c3.05-.98,3.68,1.62,3.68,1.62-.07-.56-1.32-.93-1.32-.93,.58,.36,.86,1.02,.71,1.62-.19,.74-.98,1.04-1.52,1.05-.68,.02-1.33-.38-1.67-1.03,0,0,2.03,1.81,2.45-.05-.13-.07-.27-.15-.4-.22-.02,.46-.44,.77-.8,.71-.37-.06-.66-.51-.51-.96,0,0-.71,.02-1.23,.56,0,0,1.37-2.08,3.04-.44,0,0-1.03-2.52-3.48,.1,0,0-1.33,1.52-1.98,3.77Z"/>
      </g>
      <g>
        <g>
          <path class="cls-4" d="M29.84,32.86c.43,1.13-.33,2.82-.88,3.83-1.46,2.59-3.6,4.75-5.85,6.68-.74,.64-1.54,1.23-2.32,1.82,0,0-.46,.35-.46,.35-.26-.77-.53-1.55-.77-2.33-.19-.61-.37-1.23-.53-1.86,.69,1.09,1.29,2.22,1.88,3.37,0,0-.63-.15-.63-.15,2.23-2.25,9.69-8.72,9.56-11.71h0Z"/>
          <path class="cls-4" d="M37.14,34.48c.46,3.58-.5,7.74-3.58,9.93,0,0-.33,.23-.33,.23-.13,.07-.4,.24-.52,.31-.21,.11-.54,.27-.76,.38-1.48-1.8-4.17-1.73-6.26-1.21-2.2,.55-4.22,1.6-6.19,2.71,.91-.69,1.86-1.32,2.87-1.88,2.81-1.54,6.79-2.8,9.58-.59,.13,.11,.24,.22,.35,.35,0,0-.39-.1-.39-.1,3.89-1.67,5.28-6.19,5.24-10.13h0Z"/>
          <path class="cls-4" d="M17.62,38.5c-1.07,1.8-2.35,3.78-3.4,5.59-.36,.62-.72,1.25-1,1.89l-.42-.44c2.36-.84,5.83-1.63,8.16-.43,.35,.19,.67,.44,.93,.74-.61-.5-1.36-.74-2.11-.83-1.52-.18-3.06,.1-4.54,.47-.99,.24-1.99,.59-2.94,.94,.67-1.61,1.61-3.08,2.62-4.48,.85-1.19,1.74-2.35,2.71-3.45h0Z"/>
        </g>
        <g>
          <polygon class="cls-4" points="32.29 42.5 33.6 42.93 33.25 43.49 32.29 42.5 32.29 42.5"/>
          <polygon class="cls-4" points="30.52 40.51 34.32 42.21 34 42.79 30.52 40.51 30.52 40.51"/>
          <polygon class="cls-4" points="30.62 39.78 34.96 41.33 34.69 41.93 30.62 39.78 30.62 39.78"/>
          <polygon class="cls-4" points="30.84 39.02 35.32 40.52 35.06 41.13 30.84 39.02 30.84 39.02"/>
          <polygon class="cls-4" points="31.17 38.16 35.81 39.61 35.57 40.23 31.17 38.16 31.17 38.16"/>
          <polygon class="cls-4" points="31.5 37.46 36.13 38.73 35.91 39.35 31.5 37.46 31.5 37.46"/>
          <polygon class="cls-4" points="31.86 36.76 36.21 37.73 36.01 38.36 31.86 36.76 31.86 36.76"/>
          <polygon class="cls-4" points="32.34 36.05 36.59 36.73 36.44 37.38 32.34 36.05 32.34 36.05"/>
          <polygon class="cls-4" points="32.72 35.27 36.58 35.72 36.45 36.37 32.72 35.27 32.72 35.27"/>
          <polygon class="cls-4" points="33.01 34.58 33.76 34.25 33.76 34.91 33.01 34.58 33.01 34.58"/>
          <polygon class="cls-4" points="33.99 34.58 36.6 34.95 36.43 35.59 33.99 34.58 33.99 34.58"/>
          <polygon class="cls-4" points="36.51 34.24 33.71 34.12 33.81 33.47 36.51 34.24 36.51 34.24"/>
        </g>
        <g>
          <path class="cls-4" d="M9.64,13.46l6.62,1.62s2.57-3.97,10.07-2.72c7.5,1.25,8.09,4.41,8.09,4.78l6.54-2.21v-1.47l-19.77-4.78-11.54,4.78Z"/>
          <path class="cls-4" d="M8.85,13.34l12.2-5.1,19.89,4.67,.44-.45s-.05,5.59-.44,6.81-.39,10.83-.34,11.52h.34l.25-9.8,.2,10h.34v-10.73l.34,10.73h.64s0-10.09-.49-12.3c-.49-2.21-.2-4.51-.2-4.51l4.12-1.26L20.91,7.26,7.92,13.14l.93,.2Z"/>
        </g>
        <g>
          <path class="cls-4" d="M38.51,31.11c-.83,.25-.93-.49-.93-.49,2.79-1.13,.59-2.89,.59-2.89,1.76-2.35-.88-3.72-1.37-3.97-.49-.25-1.57-.54-2.06-1.62s-1.37-1.86-1.37-1.86c-4.07-2.45-7.84-2.16-7.84-2.16,0,0,3.17,.48,3.83,2.04,0,0-1.47-1.18-3.16-1.14,0,0,2.76,.85,3.22,2.13,0,0-.92-.94-2.17-.97,0,0,1.8,.75,2.24,2.06,0,0-.81-1.07-1.76-1.21,0,0,.99,.55,1.67,1.8l-1.89-1.18,1.93,1.89-2.15-1.1,2,1.78-1.78-.72,2.15,2.11-1.78-.94,1.45,1.51-1.19-.61,1.27,1.51-1.1-.82,1.18,1.85-1.47-1.1,1.38,1.87-1.53-.66,1.38,1.53-1.84-.68,1.65,1.54-2.08-.68,1.82,1.53-2.15-.81,1.93,1.58-2.28-.81,1.87,1.67-2.39-.86,2.15,1.65-2.39-.77,1.81,1.32-1.93-.56,1.45,1.23-2.28-.59,1.53,1.21-2-.7,1.54,1.43-2.32-.9,1.41,1.62-1.69-.92,1.03,1.49-1.43-.85,.42,1.21-.97-.88,.15,1.3-.62-.99-.29,1.38-.29-1.29-.62,1.4-.11-1.69-.74,.9v-1.71l-.74,.85,.29-1.23-.66,.39v-.79h-.5v-.59l-.33-.37-.74-1.71s-1.41-1.84-1.19-5.07c0,0,.06-1.76-.02-2.5-.09-.74,.13-4.01,.35-4.59,.22-.59,.07-1.32,1.84-1.87s9.52-3.93,16.61,2.06c0,0-.04-4.96-2.46-6.25s-6.98-3.64-13.3-1.1c0,0-2.21,1.03-2.87,3.45-.66,2.43-1.07,4.7-2.94,6.03s-1.84,3.64-.88,5.15c0,0-.11-1.72,1.95-2.55,0,0-2.32,1.74-1.21,3.36l1.1,.92s-.2,1.03-.05,1.35,1.03,.61,1.03,.61c0,0,.78,0,.91,.51,.12,.51,1.57,4.95,2.82,6.6,1.25,1.65,2.24,1.87,3.82,1.25,1.58-.62,6.08-3.34,7.35-5.6,.66-1.17,1.21-2.19,1.59-2.9,.48,.62,1.28,1.09,2.55,.44,0,0-.32,2.78,3.53,2.37,.83-.09,1.13-.38,1.09-.8,.62-.92,0-2.83,0-2.83ZM22.52,14.08c.17-.04,.34-.06,.51-.04-.17,.04-.32,.09-.47,.16-1.02,.57-1.24,1.88-1.52,2.93-.07-1.11,.29-2.66,1.47-3.05Zm-.96-.04c-.56,.15-1.11,.33-1.63,.57-1.58,.7-2.7,2.2-2.93,3.91-.06-2.57,2.11-4.35,4.56-4.48Zm3.76,2.59c.46-.02,.92-.02,1.38-.02-.66,.07-1.39,.14-2.05,.24-2.03,.28-4.05,.79-5.95,1.58-.84,.35-1.67,.76-2.44,1.26,2.46-1.98,5.94-2.89,9.06-3.07Zm6.07,13.58c-.44,.62-.96,.81-.99,0-.03-.75,.56-1.3-.04-2.22-.12-.13-.18-.24-.18-.24,.07,.08,.13,.16,.18,.24,.32,.36,1.07,.9,2.25,.02,0,0-.77,1.58-1.21,2.21Zm1.23-2.33c-2.23-.45-2.66-3.08-2.09-4.95-.22,2.37,.23,4.63,2.94,5.03-.28,0-.57-.02-.85-.08Zm.82-1.52c-.11-.02-.25-.07-.35-.12-.86-.46-1.51-1.19-2.09-1.96,.65,.54,1.46,1.33,2.2,1.72,0,0,.14,.06,.14,.06l.14,.04c.3,.05,.57,.22,.79,.41,.34,.31,.61,.68,.82,1.08-.47-.5-.95-1.1-1.64-1.23Zm1.24-.84c-.44-.22-.93-.31-1.38-.53-1.8-.93-2.71-3.02-2.96-4.94,.55,1.81,1.37,3.75,3.06,4.75,.28,.16,.59,.27,.88,.41,.29,.15,.61,.3,.8,.57-.11-.12-.26-.2-.4-.27Z"/>
          <path class="cls-4" d="M30.93,29.6c-.13,0-.24,.14-.24,.31s.11,.31,.24,.31,.24-.14,.24-.31-.11-.31-.24-.31Z"/>
        </g>
      </g>
    </g>
  </g>
  <g>
    <text class="cls-2" transform="translate(56.87 41.25)"><tspan x="0" y="0">MENTOR</tspan></text>
    <g>
      <text class="cls-2" transform="translate(57.44 28.89)"><tspan x="0" y="0">ENGLISH</tspan></text>
      <g>
        <path class="cls-1" d="M103.75,28.31c-.59-.42-1.05-1-1.37-1.75s-.48-1.61-.48-2.6,.17-1.9,.5-2.65c.34-.74,.8-1.32,1.41-1.72,.6-.4,1.3-.61,2.09-.61,.67,0,1.27,.14,1.8,.41,.53,.27,.95,.66,1.28,1.15,.33,.5,.53,1.08,.61,1.75h-.99c-.07-.5-.24-.92-.49-1.25s-.57-.6-.95-.77-.8-.27-1.25-.27c-.6,0-1.13,.16-1.59,.47-.46,.32-.81,.77-1.06,1.35-.25,.59-.38,1.29-.38,2.12s.12,1.54,.37,2.13,.6,1.06,1.05,1.38c.45,.32,.98,.49,1.58,.49,.57,0,1.07-.13,1.5-.39,.43-.26,.77-.63,1.01-1.11,.25-.48,.38-1.07,.4-1.75h-2.78v-.88h3.76v.59c0,.93-.16,1.74-.49,2.41-.33,.68-.78,1.2-1.37,1.57-.59,.37-1.27,.55-2.05,.55s-1.52-.21-2.11-.63Z"/>
        <path class="cls-1" d="M111.29,19.1h3.7c.87,0,1.52,.23,1.96,.68,.44,.45,.67,1.1,.67,1.95,0,.6-.12,1.1-.37,1.51-.25,.41-.61,.7-1.09,.85v.09c.46,.09,.79,.3,.99,.62,.19,.32,.29,.76,.29,1.31v1.68c0,.16,0,.33,.02,.5,.01,.17,.05,.35,.11,.53h-.96c-.05-.13-.09-.29-.1-.47-.02-.18-.02-.38-.02-.6v-1.44c0-.36-.04-.65-.13-.89-.09-.24-.24-.42-.46-.54-.22-.12-.54-.18-.96-.18h-2.68v4.12h-.95v-9.72Zm3.57,4.67c.63,0,1.09-.18,1.36-.53s.41-.81,.41-1.36c0-.63-.16-1.09-.49-1.37-.33-.28-.75-.43-1.28-.43h-2.62v3.69h2.62Z"/>
        <path class="cls-1" d="M121.26,19.1h1.33l2.99,9.72h-1l-.74-2.4h-3.84l-.73,2.4h-1.01l2.99-9.72Zm2.34,6.41l-1.01-3.25-.63-2.09h-.06l-.64,2.09-1.02,3.25h3.35Z"/>
        <path class="cls-1" d="M126.66,19.1h3.21c.77,0,1.43,.2,1.97,.61,.54,.4,.96,.97,1.25,1.7,.29,.73,.44,1.58,.44,2.56s-.15,1.82-.44,2.55c-.29,.73-.71,1.3-1.25,1.7-.54,.4-1.2,.61-1.97,.61h-3.21v-9.72Zm3.09,8.72c.86,0,1.54-.33,2.04-.99,.5-.66,.76-1.62,.76-2.89s-.26-2.23-.77-2.87c-.51-.64-1.19-.97-2.03-.97h-2.14v7.72h2.14Z"/>
      </g>
    </g>
    <text class="cls-3" transform="translate(57.35 17.27)"><tspan x="0" y="0">THE</tspan></text>
  </g>
</svg>